<!DOCTYPE svg PUBLIC "-//W3C//DTD SVG 1.1//EN" "http://www.w3.org/Graphics/SVG/1.1/DTD/svg11.dtd">
<!-- Uploaded to: SVG Repo, www.svgrepo.com, Transformed by: SVG Repo Mixer Tools -->
<svg fill="#000000" width="800px" height="800px" viewBox="-6.5 -6.5 63.00 63.00" version="1.2" baseProfile="tiny" xmlns="http://www.w3.org/2000/svg" overflow="inherit" data-darkreader-inline-fill="" style="--darkreader-inline-fill: var(--darkreader-background-000000, #0d0d0d);">
<g id="SVGRepo_bgCarrier" stroke-width="0">
<path transform="translate(-6.5, -6.5), scale(3.9375)" fill="#7ed0ec" d="M9.166.33a2.25 2.25 0 00-2.332 0l-5.25 3.182A2.25 2.25 0 00.5 5.436v5.128a2.25 2.25 0 001.084 1.924l5.25 3.182a2.25 2.25 0 002.332 0l5.25-3.182a2.25 2.25 0 001.084-1.924V5.436a2.25 2.25 0 00-1.084-1.924L9.166.33z" strokewidth="0" data-darkreader-inline-fill="" style="--darkreader-inline-fill: var(--darkreader-background-7ed0ec, #445d62);"/>
</g>
<g id="SVGRepo_tracerCarrier" stroke-linecap="round" stroke-linejoin="round"/>
<g id="SVGRepo_iconCarrier">
<path d="M17.962 44.874c.374.403.352 1.041-.05 1.416l-2.172 2.031c-.402.375-1.037.353-1.411-.051l-12.649-13.632c-.374-.403-.351-1.04.051-1.416l2.175-2.028c.402-.376 1.037-.353 1.411.051l12.645 13.629zm16.14-25.65c.374.403.351 1.041-.051 1.416l-13.67 12.77c-.402.375-1.037.353-1.411-.051l-3.263-3.521c-.374-.403-.351-1.041.051-1.416l13.667-12.77c.401-.375 1.036-.353 1.41.051l3.267 3.521zm-11.489 21.303c.374.403.351 1.04-.051 1.416l-2.175 2.03c-.402.376-1.037.353-1.411-.051l-12.642-13.632c-.374-.403-.352-1.041.05-1.416l2.171-2.029c.402-.375 1.037-.353 1.411.051l12.647 13.631zm21.063-20.814c.374.403.351 1.041-.052 1.416l-2.174 2.03c-.402.375-1.037.353-1.412-.05l-12.644-13.629c-.375-.403-.352-1.04.05-1.416l2.18-2.035c.401-.375 1.036-.353 1.41.051l12.642 13.633zm4.644-4.34c.374.403.351 1.041-.051 1.417l-2.17 2.029c-.401.376-1.036.353-1.41-.05l-12.642-13.635c-.374-.403-.352-1.041.05-1.417l2.172-2.033c.401-.376 1.035-.354 1.409.05l12.642 13.639z"/>
</g>
</svg>